<svg width="633" height="473" viewBox="0 0 633 473" fill="none" xmlns="http://www.w3.org/2000/svg">
<path d="M259.87 330.11C254.986 324.848 252.719 319.927 252 313C290.689 325.572 312.251 325.293 350.5 313C348.219 320.331 346.219 325.356 342.741 329.897C340.013 333.459 335.513 335 331.026 335H301.5H272.088C267.517 335 262.98 333.461 259.87 330.11Z" fill="#D9D9D9" stroke="#7B57E4" strokeWidth="5"/>
<path d="M266.945 115.454C262.978 119.277 261.5 123.272 261.5 128C292.5 121 310 120.5 339.5 128C338.45 121.964 336.875 118.186 333.938 115.496C327.448 109.551 317.539 110 308.737 110H283.838C277.72 110 271.351 111.208 266.945 115.454Z" fill="#D9D9D9" stroke="#7B57E4" strokeWidth="5"/>
<path d="M413 222.5C413 277.466 362.91 322.5 300.5 322.5C238.09 322.5 188 277.466 188 222.5C188 167.534 238.09 122.5 300.5 122.5C362.91 122.5 413 167.534 413 222.5Z" fill="white" stroke="#7B57E4" strokeWidth="5"/>
<path d="M270.485 158C270.485 163.247 265.56 167.5 259.485 167.5C255.372 167.5 251.787 165.551 249.899 162.664C248.157 159.999 249.583 156.602 251.997 154.527C253.308 153.4 254.563 152.482 255.964 151.401C258.29 149.606 261.166 148.27 264.009 149.014C268.91 150.297 270.485 153.835 270.485 158Z" fill="#7B57E4"/>
<path d="M345.231 167.96C340.452 170.125 334.546 167.393 332.039 161.859C330.342 158.113 330.638 154.043 332.489 151.132C334.198 148.446 337.88 148.343 340.767 149.686C342.334 150.415 343.688 151.18 345.251 152.01C347.846 153.388 350.249 155.456 350.745 158.353C351.598 163.347 349.025 166.241 345.231 167.96Z" fill="#7B57E4"/>
<path d="M314.5 152.5C314 159 308.232 163 300.5 163C292.768 163 287 159 286.5 152.5C286 146 290.5 142 300.5 142C310 142 315 146 314.5 152.5Z" fill="#7B57E4"/>
<path d="M358.978 186.775C324.15 170.131 261.678 174.608 238.001 189C212.5 204.5 213 243.5 238.001 271.5C275.501 310.5 342.628 300 366.501 267C381.724 245.955 386.122 217.292 372.152 197.528C368.832 192.831 364.168 189.255 358.978 186.775Z" fill="#180028" stroke="#7B57E4" strokeWidth="3"/>
<path d="M178 168.159V192.5C183.263 189.804 186.874 188.818 193.173 188.172C194.205 188.066 195 187.204 195 186.166V138.725C195 135.085 190.576 133.388 188.361 136.277C183.35 142.811 180.721 148.476 179.08 155.938C178.199 159.943 178 164.058 178 168.159Z" fill="#D9D9D9" stroke="#7B57E4" strokeWidth="5"/>
<path d="M423.5 167.659V192L407.988 187.894C407.111 187.662 406.5 186.868 406.5 185.961V138.225C406.5 134.585 410.924 132.888 413.139 135.777C418.15 142.311 420.779 147.976 422.42 155.438C423.301 159.443 423.5 163.558 423.5 167.659Z" fill="#D9D9D9" stroke="#7B57E4" strokeWidth="5"/>
<path d="M159.911 210.18C162.75 204.807 165.199 203.213 170 203V245C166.418 243.641 164.074 242.832 161.551 239.986C159.677 237.872 159 235.002 159 232.177V214.035C159 212.695 159.285 211.364 159.911 210.18Z" fill="#D9D9D9" stroke="#7B57E4" strokeWidth="5"/>
<path d="M440.767 237.064C437.794 242.363 435.305 243.895 430.5 243.987L431.559 202C435.105 203.449 437.428 204.316 439.879 207.225C441.699 209.386 442.303 212.273 442.232 215.096L441.775 233.232C441.741 234.572 441.423 235.895 440.767 237.064Z" fill="#D9D9D9" stroke="#7B57E4" strokeWidth="5"/>
<path d="M176.889 193.476C182.724 189.817 187.783 188.12 194.5 187C185.644 214.655 184.774 230.285 194.5 258.5C185.647 257.314 179.582 256.053 174.451 251.214C171.53 248.46 170.5 244.349 170.5 240.335V205.834C170.5 200.894 172.704 196.101 176.889 193.476Z" fill="#D9D9D9" stroke="#7B57E4" strokeWidth="5"/>
<path d="M423.556 253.821C417.633 257.336 412.534 258.908 405.791 259.862C415.11 234.718 416.162 219.343 408.413 191.421C408.021 190.008 409.218 188.647 410.661 188.904C417.83 190.184 423.015 191.803 427.414 196.16C430.266 198.985 431.195 203.121 431.096 207.133L430.247 241.624C430.126 246.563 427.805 251.3 423.556 253.821Z" fill="#D9D9D9" stroke="#7B57E4" strokeWidth="5"/>
<ellipse cx="270" cy="218" rx="20.5" ry="26" fill="#7B57E4"/>
<ellipse cx="331" cy="218" rx="20.5" ry="26" fill="#7B57E4"/>
<ellipse cx="334.5" cy="213.5" rx="14" ry="18.5" fill="#E6DDFF"/>
<ellipse cx="273" cy="213.5" rx="14.5" ry="18.5" fill="#E6DDFF"/>
<path d="M316.5 274.765C315.529 280.265 309.784 283.765 301.5 283.765C293.215 283.765 287.264 281.265 286.5 274.765C285.5 266.265 293.215 265.265 301.5 265.265C309.784 265.265 318 266.265 316.5 274.765Z" fill="#7B57E4"/>
<circle cx="169.5" cy="65.5" r="18.5" fill="#7B57E4"/>
<circle cx="448.5" cy="335.5" r="18.5" fill="#7B57E4"/>
<circle cx="157" cy="321" r="11" fill="#7B57E4"/>
<circle cx="336" cy="75" r="10" fill="#7B57E4"/>
<circle cx="301" cy="360" r="10" fill="#7B57E4"/>
<circle cx="248" cy="382" r="9" fill="#7B57E4"/>
<circle cx="120" cy="219" r="7" fill="#7B57E4"/>
<circle cx="462" cy="190" r="7" fill="#7B57E4"/>
<circle cx="141.5" cy="156.5" r="4.5" fill="#7B57E4"/>
<circle cx="497.5" cy="285.5" r="4.5" fill="#7B57E4"/>
<circle cx="236" cy="112" r="6" fill="#7B57E4"/>
<circle cx="380" cy="382" r="6" fill="#7B57E4"/>
<circle cx="200" cy="312" r="6" fill="#7B57E4"/>
<circle cx="375.5" cy="316.5" r="4.5" fill="#7B57E4"/>
<circle cx="493" cy="111" r="15" fill="#7B57E4"/>
<circle cx="390" cy="101" r="10" fill="#7B57E4"/>
</svg>
