<svg xmlns="http://www.w3.org/2000/svg" >
<g>
<path fill="#FFFFFF" d="M85.567 28.794H74.279L61.739.847h11.404zM14.901 0c8.221 0 14.908 6.688 14.908 14.909H14.901v13.875c4.885 0 9.321-2.49 11.867-6.663l.877.535c-2.734 4.481-7.498 7.156-12.744 7.156C6.684 29.812 0 23.127 0 14.909 0 6.688 6.684 0 14.901 0zm33.473 28.784c4.354 0 8.374-1.987 11.028-5.453l.816.624c-2.851 3.722-7.168 5.857-11.844 5.857-8.22 0-14.908-6.685-14.908-14.903C33.466 6.688 40.154 0 48.374 0c4.681 0 9.003 2.137 11.856 5.864l-.816.624c-2.656-3.471-6.682-5.461-11.04-5.461z"/></g>
<g><path fill="#8c74d9" d="M87.017.76a7.276 7.276 0 0 1 9.102 2.214l-5.16 11.574c-2.917.28-5.846-1.23-7.227-4.01A7.299 7.299 0 0 1 87.017.76"/></g><g>
</g></svg>