 <svg xmlns="http://www.w3.org/2000/svg" width="700" height="700" viewBox="0 0 757 335" fill="none">
    <circle cx="304.5" cy="167.5" r="167" stroke="white" />
    <path d="M17.28 168.24C17.28 163.12 17.92 158.24 19.2 153.6C20.48 148.96 22.4 144.88 24.96 141.36C27.52 137.84 30.68 135.04 34.44 132.96C38.2 130.88 42.56 129.84 47.52 129.84C50.56 129.84 53.4 130.2 56.04 130.92C58.76 131.56 61.24 132.4 63.48 133.44C65.72 134.48 67.72 135.64 69.48 136.92C71.32 138.12 72.92 139.28 74.28 140.4L77.16 137.4C75.64 136.04 73.88 134.64 71.88 133.2C69.88 131.76 67.56 130.44 64.92 129.24C62.28 128.04 59.24 127.04 55.8 126.24C52.44 125.44 48.6 125.04 44.28 125.04C37.64 125.04 31.8 126.28 26.76 128.76C21.8 131.24 17.6 134.52 14.16 138.6C10.72 142.6 8.12 147.2 6.36 152.4C4.68 157.52 3.84 162.8 3.84 168.24C3.84 173.92 4.68 179.36 6.36 184.56C8.12 189.68 10.72 194.2 14.16 198.12C17.68 202.04 22 205.16 27.12 207.48C32.32 209.8 38.36 210.96 45.24 210.96C49.24 210.96 52.88 210.64 56.16 210C59.44 209.28 62.4 208.4 65.04 207.36C67.76 206.24 70.16 205.04 72.24 203.76C74.32 202.4 76.16 201.12 77.76 199.92L74.88 196.8C71.84 199.36 68.12 201.56 63.72 203.4C59.4 205.24 53.88 206.16 47.16 206.16C42.44 206.16 38.24 205.16 34.56 203.16C30.88 201.08 27.76 198.32 25.2 194.88C22.64 191.36 20.68 187.32 19.32 182.76C17.96 178.12 17.28 173.28 17.28 168.24ZM262.111 139.56L266.071 137.88C265.351 136.44 264.431 135 263.311 133.56C262.191 132.04 260.831 130.72 259.231 129.6C257.631 128.4 255.671 127.44 253.351 126.72C251.111 125.92 248.471 125.52 245.431 125.52C242.071 125.52 238.911 126.04 235.951 127.08C233.071 128.12 230.551 129.56 228.391 131.4C226.231 133.24 224.511 135.48 223.231 138.12C222.031 140.68 221.431 143.52 221.431 146.64C221.431 149.2 221.791 151.68 222.511 154.08C223.311 156.48 224.551 158.76 226.231 160.92C227.911 163 230.111 164.96 232.831 166.8C235.631 168.56 239.071 170.08 243.151 171.36C248.991 173.28 253.191 175.92 255.751 179.28C258.391 182.56 259.711 186.32 259.711 190.56C259.711 195.44 258.391 199.44 255.751 202.56C253.191 205.6 249.031 207.12 243.271 207.12C241.031 207.12 238.911 206.72 236.911 205.92C234.911 205.12 233.111 204.04 231.511 202.68C229.911 201.32 228.511 199.72 227.311 197.88C226.191 196.04 225.391 194.04 224.911 191.88L220.831 192.96C221.471 195.2 222.391 197.4 223.591 199.56C224.791 201.64 226.351 203.52 228.271 205.2C230.191 206.88 232.551 208.24 235.351 209.28C238.151 210.24 241.511 210.72 245.431 210.72C249.431 210.72 252.991 210.08 256.111 208.8C259.231 207.44 261.871 205.64 264.031 203.4C266.191 201.16 267.831 198.56 268.951 195.6C270.071 192.64 270.631 189.52 270.631 186.24C270.631 183.04 270.071 180 268.951 177.12C267.831 174.24 266.271 171.64 264.271 169.32C262.271 166.92 259.831 164.84 256.951 163.08C254.151 161.24 251.071 159.76 247.711 158.64C241.791 156.72 237.551 154.68 234.991 152.52C232.511 150.28 231.271 147.32 231.271 143.64C231.271 141.72 231.631 139.88 232.351 138.12C233.071 136.36 234.071 134.84 235.351 133.56C236.711 132.2 238.311 131.12 240.151 130.32C241.991 129.52 244.071 129.12 246.391 129.12C250.231 129.12 253.511 130.2 256.231 132.36C258.951 134.44 260.911 136.84 262.111 139.56ZM304.078 126V210H307.798V138.24L341.998 211.68L374.278 138.24V210H386.278V126H375.718L346.798 190.68L316.798 126H304.078ZM543.681 126H529.521L559.761 170.76L529.401 210H534.681L562.521 174.72L586.041 210H600.441L570.321 165.48L600.801 126H595.761L567.681 161.4L543.681 126Z" fill="white" />
    <g filter="url(#filter0_d_110_9)">
      <path d="M185.32 167C185.32 161.56 184.4 156.28 182.56 151.16C180.8 145.96 178.12 141.36 174.52 137.36C171 133.28 166.6 130 161.32 127.52C156.12 125.04 150.08 123.8 143.2 123.8C136.32 123.8 130.24 125.04 124.96 127.52C119.68 130 115.28 133.28 111.76 137.36C108.24 141.36 105.56 145.96 103.72 151.16C101.96 156.28 101.08 161.56 101.08 167C101.08 172.44 101.96 177.8 103.72 183.08C105.56 188.28 108.24 192.96 111.76 197.12C115.28 201.2 119.68 204.52 124.96 207.08C130.24 209.56 136.32 210.8 143.2 210.8C150.08 210.8 156.12 209.56 161.32 207.08C166.6 204.52 171 201.2 174.52 197.12C178.12 192.96 180.8 188.28 182.56 183.08C184.4 177.8 185.32 172.44 185.32 167ZM113.56 167C113.56 161.96 114.16 157.08 115.36 152.36C116.56 147.64 118.4 143.44 120.88 139.76C123.36 136 126.44 133 130.12 130.76C133.88 128.52 138.24 127.4 143.2 127.4C148.16 127.4 152.48 128.52 156.16 130.76C159.92 133 163 136 165.4 139.76C167.88 143.44 169.72 147.64 170.92 152.36C172.2 157.08 172.84 161.96 172.84 167C172.84 172.04 172.2 176.92 170.92 181.64C169.72 186.36 167.88 190.6 165.4 194.36C163 198.04 159.92 201 156.16 203.24C152.48 205.48 148.16 206.6 143.2 206.6C138.24 206.6 133.88 205.48 130.12 203.24C126.44 201 123.36 198.04 120.88 194.36C118.4 190.6 116.56 186.36 115.36 181.64C114.16 176.92 113.56 172.04 113.56 167ZM505.523 167C505.523 161.56 504.603 156.28 502.763 151.16C501.003 145.96 498.323 141.36 494.723 137.36C491.203 133.28 486.803 130 481.523 127.52C476.323 125.04 470.283 123.8 463.403 123.8C456.523 123.8 450.443 125.04 445.163 127.52C439.883 130 435.483 133.28 431.963 137.36C428.443 141.36 425.763 145.96 423.923 151.16C422.163 156.28 421.283 161.56 421.283 167C421.283 172.44 422.163 177.8 423.923 183.08C425.763 188.28 428.443 192.96 431.963 197.12C435.483 201.2 439.883 204.52 445.163 207.08C450.443 209.56 456.523 210.8 463.403 210.8C470.283 210.8 476.323 209.56 481.523 207.08C486.803 204.52 491.203 201.2 494.723 197.12C498.323 192.96 501.003 188.28 502.763 183.08C504.603 177.8 505.523 172.44 505.523 167ZM433.763 167C433.763 161.96 434.363 157.08 435.563 152.36C436.763 147.64 438.603 143.44 441.083 139.76C443.563 136 446.643 133 450.323 130.76C454.083 128.52 458.443 127.4 463.403 127.4C468.363 127.4 472.683 128.52 476.363 130.76C480.123 133 483.203 136 485.603 139.76C488.083 143.44 489.923 147.64 491.123 152.36C492.403 157.08 493.043 161.96 493.043 167C493.043 172.04 492.403 176.92 491.123 181.64C489.923 186.36 488.083 190.6 485.603 194.36C483.203 198.04 480.123 201 476.363 203.24C472.683 205.48 468.363 206.6 463.403 206.6C458.443 206.6 454.083 205.48 450.323 203.24C446.643 201 443.563 198.04 441.083 194.36C438.603 190.6 436.763 186.36 435.563 181.64C434.363 176.92 433.763 172.04 433.763 167Z" fill="white" />

      <path d="M173 167C174 189 160.345 207 143.5 207C125.5 208 112.5 188.5 113.5 167C113.5 144.909 125.5 127 143.5 127C160.345 127 173 144.909 173 167Z" fill="currentColor" />
      <path d="M493 167C494 189 480.345 207 463.5 207C445.5 208 432.5 188.5 433.5 167C433.5 144.909 445.5 127 463.5 127C480.345 127 493 144.909 493 167Z" fill="currentColor" />
      <animateTransform attributeName="transform" attributeType="XML" dur="10s" from="0 304.5 167.5" repeatCount="indefinite" to="360 304.5 167.5" type="rotate"></animateTransform>
    </g>

    <defs>
      <filter id="filter0_d_110_9" x="81.08" y="103.8" width="444.443" height="127" filterUnits="userSpaceOnUse" color-interpolation-filters="sRGB">
        <feFlood flood-opacity="0" result="BackgroundImageFix" />
        <feColorMatrix in="SourceAlpha" type="matrix" values="0 0 0 0 0 0 0 0 0 0 0 0 0 0 0 0 0 0 127 0" result="hardAlpha" />
        <feOffset />
        <feGaussianBlur stdDeviation="10" />
        <feComposite in2="hardAlpha" operator="out" />
        <feColorMatrix type="matrix" values="0 0 0 0 1 0 0 0 0 1 0 0 0 0 1 0 0 0 1 0" />
        <feBlend mode="normal" in2="BackgroundImageFix" result="effect1_dropShadow_110_9" />
        <feBlend mode="normal" in="SourceGraphic" in2="effect1_dropShadow_110_9" result="shape" />
      </filter>
    </defs>
  </svg>